<svg version="1.1" id="Layer_1" xmlns="http://www.w3.org/2000/svg"
	xmlns:xlink="http://www.w3.org/1999/xlink" x="0px" y="0px"
	viewBox="0 0 2048 2048" style="enable-background:new 0 0 2048 2048;" xml:space="preserve">
<g>
	<path style="fill:#BBECFF;" d="M756.156,1344.115c-105.805,0-191.58-85.776-191.58-191.589c0-52.906,21.448-100.799,56.11-135.47
		c34.671-34.671,82.572-56.11,135.47-56.11h11.363c0-141.654,114.827-256.481,256.481-256.481s256.481,114.827,256.481,256.481
		h11.363c105.805,0,191.58,85.768,191.58,191.58c0,52.906-21.448,100.799-56.11,135.478c-34.671,34.662-82.572,56.11-135.47,56.11
		H756.156z"/>
	<g>
		<g>
			<path style="fill:#B0CCDD;" d="M1024,625.313c-13.255,0-24-10.716-24-23.971V472.673c0-13.255,10.745-24,24-24s24,10.745,24,24
				v128.609C1048,614.538,1037.255,625.313,1024,625.313z"/>
		</g>
	</g>
	<g>
		<g>
			<path style="fill:#B0CCDD;" d="M725.098,749.118c-6.131,0-12.26-2.338-16.941-7.02l-90.979-90.979
				c-9.373-9.373-9.373-24.569,0-33.941c9.373-9.372,24.568-9.372,33.941,0l90.939,90.939c9.373,9.373,9.392,24.588,0.02,33.961
				C737.387,746.769,731.241,749.118,725.098,749.118z"/>
		</g>
	</g>
	<g>
		<g>
			<path style="fill:#B0CCDD;" d="M552.007,1519.992c-6.143,0-12.284-2.343-16.971-7.029c-9.373-9.373-9.373-24.568,0-33.941
				l90.949-90.948c9.321-9.325,24.46-9.405,33.856-0.124c9.43,9.315,9.543,24.491,0.228,33.921
				c-0.034,0.035-0.108,0.109-0.143,0.145l-90.949,90.948C564.292,1517.648,558.148,1519.992,552.007,1519.992z"/>
		</g>
	</g>
	<g>
		<g>
			<path style="fill:#B0CCDD;" d="M1024,1599.327c-13.255,0-24-10.745-24-24v-128.609c0-13.255,10.745-24.03,24-24.03
				s24,10.716,24,23.971v128.669C1048,1588.582,1037.255,1599.327,1024,1599.327z"/>
		</g>
	</g>
	<g>
		<g>
			<path style="fill:#B0CCDD;" d="M1494.124,1518.124c-6.143,0-12.284-2.343-16.971-7.029l-90.938-90.938
				c-9.372-9.373-9.393-24.589-0.02-33.961c9.373-9.374,24.55-9.392,33.921-0.021l90.979,90.979c9.372,9.373,9.372,24.568,0,33.941
				C1506.408,1515.781,1500.267,1518.124,1494.124,1518.124z"/>
		</g>
	</g>
	<g>
		<g>
			<path style="fill:#B0CCDD;" d="M497.632,1048H368.963c-13.255,0-24-10.745-24-24s10.745-24,24-24h128.609
				c13.255,0,24.03,10.745,24.03,24S510.887,1048,497.632,1048z"/>
		</g>
	</g>
	<g>
		<g>
			<path style="fill:#B0CCDD;" d="M1679.037,1048h-128.609c-13.255,0-24.029-10.745-24.029-24s10.715-24,23.97-24h128.669
				c13.255,0,24,10.745,24,24S1692.292,1048,1679.037,1048z"/>
		</g>
	</g>
	<g>
		<g>
			<path style="fill:#B0CCDD;" d="M1322.882,749.098c-6.091,0-12.182-2.3-16.854-6.915c-9.431-9.314-9.544-24.49-0.229-33.92
				l0.039-0.04c0.034-0.035,0.069-0.071,0.104-0.106l90.938-90.939c9.373-9.372,24.568-9.372,33.941,0
				c9.372,9.373,9.372,24.569,0,33.941l-90.902,90.902C1335.228,746.735,1329.055,749.098,1322.882,749.098z"/>
		</g>
	</g>
	<circle style="fill:#EBCD6D;" cx="1723.52" cy="1024" r="68.48"/>
	<path style="fill:#DD8793;" d="M1477.16,1477.16c-13.35,13.35-20.02,30.88-20.02,48.42c0,17.54,6.67,35.07,20.02,48.42
		c13.35,13.35,30.88,20.03,48.42,20.03c17.54,0,35.07-6.68,48.42-20.03c26.7-26.7,26.7-70.14,0-96.84
		C1547.3,1450.46,1503.86,1450.45,1477.16,1477.16z"/>
	<path style="fill:#DD8793;" d="M1493.72,651.12c12.94-12.93,20.06-30.13,20.06-48.42c0-18.29-7.12-35.49-20.06-48.42
		c-12.93-12.94-30.13-20.06-48.42-20.06s-35.49,7.12-48.42,20.06c-12.94,12.93-20.06,30.13-20.06,48.42
		c0,18.29,7.12,35.49,20.06,48.42c12.93,12.94,30.13,20.06,48.42,20.06c9.14,0,18.02-1.78,26.22-5.18
		C1479.72,662.6,1487.26,657.59,1493.72,651.12z"/>
	<circle style="fill:#EBCD6D;" cx="1024" cy="428.19" r="68.48"/>
	<circle style="fill:#EBCD6D;" cx="1024" cy="1619.81" r="68.48"/>
	<path style="fill:#DD8793;" d="M554.28,554.28c-26.7,26.7-26.7,70.14,0,96.84c12.93,12.94,30.13,20.06,48.42,20.06
		c18.29,0,35.49-7.12,48.42-20.06c13.35-13.35,20.02-30.88,20.02-48.42c0-17.54-6.67-35.07-20.02-48.42
		C624.42,527.58,580.98,527.58,554.28,554.28z"/>
	<path style="fill:#DD8793;" d="M520.56,1458.96c-18.29,0-35.49,7.12-48.42,20.06c-12.94,12.93-20.06,30.13-20.06,48.42
		s7.12,35.49,20.06,48.42c12.93,12.94,30.13,20.06,48.42,20.06s35.49-7.12,48.42-20.06c12.94-12.93,20.06-30.13,20.06-48.42
		s-7.12-35.49-20.06-48.42C556.05,1466.08,538.85,1458.96,520.56,1458.96z"/>
	
		<ellipse transform="matrix(0.7071 -0.7071 0.7071 0.7071 -629.0394 529.3647)" style="fill:#EBCD6D;" cx="324.48" cy="1024" rx="68.48" ry="68.48"/>
</g>
</svg>